<?xml version="1.0" encoding="UTF-8"?>
<svg id="Layer_2" data-name="Layer 2" xmlns="http://www.w3.org/2000/svg" viewBox="0 0 131.86 27.98">
  <defs>
    <style>
      .cls-1 {
        fill: #fe5d3c;
      }
    </style>
  </defs>
  <g id="Layer_1-2" data-name="Layer 1">
    <g>
      <path class="cls-1" d="M3.83,27.28c-1.63-.47-2.91-1.11-3.83-1.91l1.81-3.28c.86.65,1.91,1.2,3.15,1.64,1.24.44,2.52.66,3.84.66s2.41-.21,3.38-.62c.97-.41,1.72-.97,2.25-1.67.53-.7.79-1.53.79-2.49l.03-.98h-.03c-.35.54-.84,1.02-1.5,1.45-.65.43-1.4.77-2.25,1.01-.84.24-1.73.36-2.65.36-1.57,0-2.96-.32-4.16-.95-1.2-.63-2.13-1.52-2.78-2.66-.65-1.14-.98-2.46-.98-3.96,0-1.57.33-2.93.98-4.07.65-1.14,1.57-2.04,2.76-2.69,1.19-.65,2.58-.98,4.17-.98,1.4,0,2.68.32,3.84.96,1.16.64,2.02,1.48,2.58,2.52h.03l.66-2.99h4v13.01c0,1.69-.44,3.16-1.32,4.4s-2.15,2.22-3.8,2.91c-1.65.69-3.58,1.04-5.79,1.04-1.84,0-3.58-.24-5.21-.71ZM13.08,17.53c.74-.35,1.31-.84,1.71-1.48.4-.64.6-1.35.6-2.12,0-.84-.19-1.59-.58-2.25-.38-.65-.96-1.15-1.71-1.5-.76-.35-1.63-.52-2.61-.52s-1.81.17-2.55.52c-.74.35-1.31.84-1.73,1.5-.41.65-.62,1.4-.62,2.25,0,.79.21,1.5.62,2.15s.99,1.13,1.74,1.47,1.59.5,2.53.5,1.84-.17,2.58-.52Z"/>
      <path class="cls-1" d="M24.82,21.33c-.98-.33-1.73-.82-2.26-1.48-.53-.66-.79-1.42-.79-2.26,0-1.36.7-2.49,2.09-3.37s3.35-1.46,5.89-1.73l4.52-.4c.38-.02.68-.11.88-.27.2-.16.3-.38.3-.65,0-.35-.16-.67-.49-.98-.33-.31-.79-.54-1.38-.69-.6-.15-1.27-.23-2.02-.23-.9,0-1.78.12-2.63.37s-1.63.59-2.32,1.02c-.69.43-1.25.92-1.67,1.45l-2.88-1.78c.44-.83,1.13-1.55,2.07-2.19.94-.63,2.05-1.14,3.33-1.51,1.28-.37,2.62-.56,4.02-.56,1.71,0,3.21.23,4.49.68,1.29.45,2.29,1.1,3.02,1.96.73.85,1.09,1.87,1.09,3.04v5.84c0,.31.09.56.27.76.18.2.44.3.76.3.27,0,.53-.07.78-.2s.48-.32.69-.55l1.24,2.45c-.44.44-1.05.8-1.81,1.08-.77.28-1.57.42-2.42.42-.75,0-1.42-.12-2.02-.37-.6-.25-1.07-.59-1.42-1.04-.36-.44-.57-.94-.65-1.5l-.03-.37h-.03c-.42.67-.97,1.25-1.66,1.73-.68.48-1.51.85-2.48,1.12s-1.99.4-3.07.4c-1.31,0-2.45-.16-3.43-.49ZM32.68,18.22c.84-.33,1.51-.77,2-1.32.49-.56.73-1.16.73-1.81v-.46l-5.01.43c-1.29.13-2.27.36-2.94.68-.67.32-1.01.73-1.01,1.25s.3.96.89,1.27c.59.31,1.41.46,2.45.46s2.03-.16,2.88-.49Z"/>
      <path class="cls-1" d="M45.17,0h4.69v21.36h-4.69V0Z"/>
      <path class="cls-1" d="M54.7,21.33c-.98-.33-1.73-.82-2.26-1.48-.53-.66-.79-1.42-.79-2.26,0-1.36.7-2.49,2.09-3.37s3.35-1.46,5.89-1.73l4.52-.4c.38-.02.68-.11.88-.27.2-.16.3-.38.3-.65,0-.35-.16-.67-.49-.98-.33-.31-.79-.54-1.38-.69-.6-.15-1.27-.23-2.02-.23-.9,0-1.78.12-2.63.37s-1.63.59-2.32,1.02c-.69.43-1.25.92-1.67,1.45l-2.88-1.78c.44-.83,1.13-1.55,2.07-2.19.94-.63,2.05-1.14,3.33-1.51,1.28-.37,2.62-.56,4.02-.56,1.71,0,3.21.23,4.49.68,1.29.45,2.29,1.1,3.02,1.96.73.85,1.09,1.87,1.09,3.04v5.84c0,.31.09.56.27.76.18.2.44.3.76.3.27,0,.53-.07.78-.2s.48-.32.69-.55l1.24,2.45c-.44.44-1.05.8-1.81,1.08-.77.28-1.57.42-2.42.42-.75,0-1.42-.12-2.02-.37-.6-.25-1.07-.59-1.42-1.04-.36-.44-.57-.94-.65-1.5l-.03-.37h-.03c-.42.67-.97,1.25-1.66,1.73-.68.48-1.51.85-2.48,1.12s-1.99.4-3.07.4c-1.31,0-2.45-.16-3.43-.49ZM62.56,18.22c.84-.33,1.51-.77,2-1.32.49-.56.73-1.16.73-1.81v-.46l-5.01.43c-1.29.13-2.27.36-2.94.68-.67.32-1.01.73-1.01,1.25s.3.96.89,1.27c.59.31,1.41.46,2.45.46s2.03-.16,2.88-.49Z"/>
      <path class="cls-1" d="M78.21,21.26c-.97-.45-1.71-1.1-2.22-1.96-.51-.85-.76-1.85-.76-2.98v-6.39h-3.71v-3.31h3.69V2.45l4.66-.92v5.1h7.66v3.31h-7.57l-.06,5.56c0,.6.12,1.11.36,1.54.24.43.57.76.98.99.41.23.91.35,1.48.35.83,0,1.56-.21,2.22-.62.65-.41,1.21-.98,1.67-1.71l1.67,2.62c-.67,1.02-1.58,1.82-2.72,2.4-1.14.58-2.43.88-3.87.88-1.34,0-2.5-.23-3.47-.68Z"/>
      <path class="cls-1" d="M94.4,20.93c-1.57-.67-2.8-1.63-3.69-2.88-.88-1.25-1.32-2.64-1.32-4.17s.41-2.82,1.22-4.02c.82-1.2,1.94-2.14,3.38-2.81,1.44-.67,3.08-1.01,4.92-1.01s3.4.33,4.79.98c1.39.65,2.47,1.56,3.24,2.72.77,1.16,1.15,2.49,1.15,3.99,0,.27-.01.54-.04.82s-.07.52-.13.73h-13.56c.13.71.48,1.31,1.02,1.79.55.48,1.22.86,2.03,1.15.81.29,1.69.43,2.65.43,1.25,0,2.43-.19,3.56-.58,1.12-.38,1.97-.88,2.55-1.5l2.13,2.27c-.52.61-1.21,1.15-2.09,1.6-.88.45-1.87.81-2.98,1.08s-2.25.4-3.4.4c-2.05,0-3.87-.34-5.44-1.01ZM103.35,12.73c-.1-.77-.35-1.4-.75-1.9-.4-.5-.93-.88-1.58-1.14-.65-.26-1.38-.39-2.19-.39s-1.51.14-2.17.42c-.66.28-1.19.68-1.6,1.19-.4.52-.66,1.12-.78,1.81h9.07Z"/>
      <path class="cls-1" d="M112.86,21.33c-.98-.33-1.73-.82-2.26-1.48-.53-.66-.79-1.42-.79-2.26,0-1.36.7-2.49,2.09-3.37,1.39-.88,3.35-1.46,5.89-1.73l4.52-.4c.38-.02.68-.11.88-.27.2-.16.3-.38.3-.65,0-.35-.16-.67-.49-.98-.33-.31-.79-.54-1.38-.69-.59-.15-1.27-.23-2.01-.23-.9,0-1.78.12-2.63.37-.85.25-1.63.59-2.32,1.02-.69.43-1.25.92-1.67,1.45l-2.88-1.78c.44-.83,1.13-1.55,2.07-2.19.94-.63,2.05-1.14,3.33-1.51,1.28-.37,2.61-.56,4.02-.56,1.71,0,3.21.23,4.49.68,1.29.45,2.29,1.1,3.02,1.96.73.85,1.09,1.87,1.09,3.04v5.84c0,.31.09.56.27.76.18.2.44.3.76.3.27,0,.53-.07.78-.2s.48-.32.69-.55l1.24,2.45c-.44.44-1.05.8-1.81,1.08-.77.28-1.57.42-2.42.42-.75,0-1.42-.12-2.02-.37-.59-.25-1.07-.59-1.42-1.04-.36-.44-.57-.94-.65-1.5l-.03-.37h-.03c-.42.67-.97,1.25-1.66,1.73-.68.48-1.51.85-2.48,1.12-.97.27-1.99.4-3.07.4-1.3,0-2.45-.16-3.43-.49ZM120.71,18.22c.84-.33,1.51-.77,2-1.32s.73-1.16.73-1.81v-.46l-5.01.43c-1.29.13-2.26.36-2.94.68s-1.01.73-1.01,1.25.3.96.89,1.27c.59.31,1.41.46,2.45.46s2.03-.16,2.88-.49Z"/>
    </g>
  </g>
</svg>