<?xml version="1.0" encoding="UTF-8"?>
<svg id="Layer_2" data-name="Layer 2" xmlns="http://www.w3.org/2000/svg" xmlns:xlink="http://www.w3.org/1999/xlink" viewBox="0 0 58.86 58.86">
  <defs>
    <style>
      .cls-1 {
        fill: #fe91fe;
      }

      .cls-2 {
        fill: #fff;
      }

      .cls-3 {
        fill: #fe5d3c;
      }

      .cls-4 {
        fill: none;
      }

      .cls-5 {
        clip-path: url(#clippath-1);
      }

      .cls-6 {
        clip-path: url(#clippath);
      }
    </style>
    <clipPath id="clippath">
      <rect class="cls-4" width="58.86" height="58.86"/>
    </clipPath>
    <clipPath id="clippath-1">
      <rect class="cls-4" width="58.86" height="58.86"/>
    </clipPath>
  </defs>
  <g id="Layer_1-2" data-name="Layer 1">
    <g id="Logotipo_Galatea_Sticker" data-name="Logotipo Galatea Sticker">
      <g class="cls-6">
        <g class="cls-5">
          <path class="cls-1" d="M58.5,30.52l-1.74,2.39c-.35.48-.45,1.1-.26,1.66l.92,2.81c.25.76-.02,1.6-.67,2.07l-2.39,1.73c-.48.35-.76.9-.76,1.5v2.96c0,.8-.52,1.51-1.28,1.76l-2.81.91c-.57.18-1.01.63-1.19,1.19l-.91,2.81c-.25.76-.96,1.28-1.76,1.28h-2.96c-.59,0-1.15.28-1.5.76l-1.73,2.39c-.47.65-1.31.92-2.07.67l-2.81-.92c-.56-.18-1.18-.09-1.66.26l-2.39,1.74c-.65.47-1.53.47-2.17,0l-2.39-1.74c-.48-.35-1.1-.45-1.66-.26l-2.81.92c-.76.25-1.6-.02-2.07-.67l-1.73-2.39c-.35-.48-.9-.76-1.5-.76h-2.96c-.8,0-1.51-.52-1.76-1.28l-.91-2.81c-.18-.57-.63-1.01-1.19-1.19l-2.81-.91c-.76-.25-1.28-.96-1.28-1.76v-2.96c0-.59-.28-1.15-.76-1.5l-2.39-1.73c-.65-.47-.92-1.31-.67-2.07l.92-2.81c.18-.56.09-1.18-.26-1.66l-1.74-2.39c-.47-.65-.47-1.53,0-2.17l1.74-2.39c.35-.48.45-1.1.26-1.66l-.92-2.81c-.25-.76.02-1.6.67-2.07l2.39-1.73c.48-.35.76-.9.76-1.5v-2.96c0-.8.52-1.51,1.28-1.76l2.81-.91c.57-.18,1.01-.63,1.19-1.19l.91-2.81c.25-.76.96-1.28,1.76-1.28h2.96c.59,0,1.15-.28,1.5-.76l1.73-2.39c.47-.65,1.31-.92,2.07-.67l2.81.92c.56.18,1.18.09,1.66-.26l2.39-1.74c.65-.47,1.53-.47,2.17,0l2.39,1.74c.48.35,1.1.45,1.66.26l2.81-.92c.76-.25,1.6.02,2.07.67l1.73,2.39c.35.48.9.76,1.5.76h2.96c.8,0,1.51.52,1.76,1.28l.91,2.81c.18.57.63,1.01,1.19,1.19l2.81.91c.76.25,1.28.96,1.28,1.76v2.96c0,.59.28,1.15.76,1.5l2.39,1.73c.65.47.92,1.31.67,2.07l-.92,2.81c-.18.56-.09,1.18.26,1.66l1.74,2.39c.47.65.47,1.53,0,2.17"/>
          <path class="cls-2" d="M29.11,47.97c-4.27,0-7.59-.69-10.14-2.11-3.72-2.07-4.51-4.97-4.51-7.05,0-1.77.58-3.36,1.71-4.73.21-.25.43-.48.66-.71-.61-.91-.94-1.97-.94-3.1,0-1.41.48-2.74,1.39-3.84.25-.3.52-.57.81-.82-.02-.06-.04-.11-.05-.17-.3-.94-.46-1.96-.46-3.04,0-2.99,1.17-5.56,3.4-7.43,2.13-1.79,4.89-2.69,8.21-2.69,1.49,0,2.88.2,4.13.6.87.28,1.68.65,2.42,1.11l5.59-1.34c.19-.05.39-.07.58-.07.56,0,1.12.19,1.56.56.6.49.94,1.23.91,2l-.12,3.67.12,2.78c.03.67-.22,1.33-.68,1.82-.47.49-1.11.76-1.79.76h-1.68c-.34,2.12-1.32,3.95-2.87,5.36,1.41.43,2.67,1.14,3.76,2.12,1.97,1.78,3.01,4.1,3.01,6.7,0,2.16-.8,5.19-4.61,7.37-2.65,1.51-6.06,2.25-10.42,2.25"/>
          <path class="cls-3" d="M37.9,22.42c0,2.28-.79,4.09-2.37,5.43-1.58,1.34-3.69,2.01-6.34,2.01-.9,0-1.77-.08-2.6-.25-.83-.17-1.6-.41-2.3-.72-.85.03-1.48.15-1.9.36-.42.21-.63.49-.63.82,0,.51.53.87,1.61,1.1,1.07.23,2.78.34,5.11.34h5.33c2.31,0,4.2.66,5.66,1.99,1.46,1.32,2.2,2.94,2.2,4.86,0,2.2-1.12,3.94-3.36,5.22-2.24,1.28-5.3,1.92-9.19,1.92s-6.78-.6-8.94-1.8c-2.16-1.2-3.23-2.83-3.23-4.88,0-1.18.38-2.23,1.14-3.15.76-.92,1.8-1.59,3.13-2.01-.93-.37-1.63-.83-2.11-1.39-.48-.56-.72-1.23-.72-1.99,0-.85.27-1.6.82-2.26.55-.66,1.27-1.13,2.18-1.42-.42-.56-.75-1.2-.97-1.9-.23-.7-.34-1.46-.34-2.28,0-2.28.84-4.13,2.51-5.54,1.68-1.41,3.88-2.11,6.61-2.11,1.24,0,2.37.16,3.38.49,1.01.32,1.9.8,2.66,1.42l6.68-1.61-.13,3.76.13,2.87h-4.06c.03.08.04.18.04.27v.44ZM24.97,34.51c-.73.17-1.32.47-1.75.91-.44.44-.66.91-.66,1.42,0,.96.49,1.63,1.48,2.03.99.39,2.68.59,5.07.59,2.76,0,4.78-.23,6.07-.68,1.28-.45,1.92-1.16,1.92-2.11,0-.59-.23-1.07-.68-1.44-.45-.37-1.07-.55-1.86-.55h-6.04c-.76,0-1.43-.01-2.01-.04-.58-.03-1.09-.07-1.54-.13M24.17,22.47c0,.7.45,1.28,1.35,1.71.9.44,2.11.66,3.63.66s2.78-.22,3.7-.66c.92-.44,1.37-1.01,1.37-1.71,0-.76-.45-1.39-1.35-1.9-.9-.51-2.13-.76-3.68-.76s-2.78.25-3.68.76c-.9.51-1.35,1.14-1.35,1.9"/>
        </g>
      </g>
    </g>
  </g>
</svg>